# AST/ASF file generated using VICON BodyLanguage
# -----------------------------------------------
:version 1.10
:name VICON
:units
  mass 1.0
  length 0.45
  angle deg
:documentation
   .ast/.asf automatically generated from VICON data using
   VICON BodyBuilder and BodyLanguage model FoxedUp or BRILLIANT.MOD
:root
   order TX TY TZ RX RY RZ
   axis XYZ
   position 0 0 0  
   orientation 0 0 0 
:bonedata
  begin
     id 1 
     name lhipjoint
     direction 0.661853 -0.702389 0.261917 
     length 2.64193 
     axis 0 0 0  XYZ
  end
  begin
     id 2 
     name lfemur
     direction 0.34202 -0.939693 0  
     length 7.01722  
     axis 0 0 20  XYZ
    dof rx ry rz
    limits (-160.0 20.0)
           (-70.0 70.0)
           (-60.0 70.0)
  end
  begin
     id 3 
     name ltibia
     direction 0.34202 -0.939693 0   
     length 8.25008   
     axis 0 0 20   XYZ
    dof rx
    limits (-10.0 170.0)
  end
  begin
     id 4 
     name lfoot
     direction 0.0709916 -0.195048 0.978221   
     length 2.31941   
     axis -90 7.62852e-016 20   XYZ
    dof rx rz
    limits (-45.0 90.0)
           (-70.0 20.0)
  end
  begin
     id 5 
     name ltoes
     direction 1.53586e-011 -4.22017e-011 1   
     length 1.16486   
     axis -90 7.62852e-016 20   XYZ
    dof rx
    limits (-90.0 20.0)
  end
  begin
     id 6 
     name rhipjoint
     direction -0.638185 -0.721362 0.268992   
     length 2.57244  
     axis 0 0 0  XYZ 
  end
  begin
     id 7 
     name rfemur
     direction -0.34202 -0.939693 0   
     length 7.07017   
     axis 0 0 -20   XYZ
    dof rx ry rz
    limits (-160.0 20.0)
           (-70.0 70.0)
           (-70.0 60.0)
  end
  begin
     id 8 
     name rtibia
     direction -0.34202 -0.939693 0   
     length 8.20386   
     axis 0 0 -20   XYZ
    dof rx
    limits (-10.0 170.0)
 end
 begin
     id 9 
     name rfoot
     direction -0.0822429 -0.225961 0.970658   
     length 2.32215  
     axis -90 -7.62852e-016 -20   XYZ
    dof rx rz
    limits (-45.0 90.0)
           (-20.0 70.0)
  end
  begin
     id 10 
     name rtoes
     direction -1.53597e-011 -4.21689e-011 1   
     length 1.16333   
     axis -90 -7.62852e-016 -20   XYZ
    dof rx
    limits (-90.0 20.0)
  end
  begin
     id 11 
     name lowerback
     direction -0.0131557 0.998589 -0.0514484   
     length 2.14993   
     axis 0 0 0   XYZ
    dof rx ry rz
    limits (-20.0 45.0)
           (-30.0 30.0)
           (-30.0 30.0)
  end
  begin
     id 12 
     name upperback
     direction -0.000776481 0.999993 0.00352685   
     length 2.15301   
     axis 0 0 0   XYZ
    dof rx ry rz
    limits (-20.0 45.0)
           (-30.0 30.0)
           (-30.0 30.0)
  end
  begin
     id 13 
     name thorax
     direction 0.00438186 0.999609 0.0276143   
     length 2.15424   
     axis 0 0 0   XYZ
    dof rx ry rz
    limits (-20.0 45.0)
           (-30.0 30.0)
           (-30.0 30.0)
  end
  begin
     id 14 
     name lowerneck
     direction -0.0488006 0.998094 0.0377807   
     length 1.90481   
     axis 0 0 0   XYZ
    dof rx ry rz
    limits (-20.0 45.0)
           (-30.0 30.0)
           (-30.0 30.0)
  end
  begin
     id 15 
     name upperneck
     direction 0.0443769 0.990702 -0.12861   
     length 1.91305   
     axis 0 0 0   XYZ
    dof rx ry rz
    limits (-20.0 45.0)
           (-30.0 30.0)
           (-30.0 30.0)
  end
  begin
     id 16
     name head
     direction 0.0165599 0.998647 -0.0492982  
     length 1.92369  
     axis 0 0 0   XYZ
    dof rx ry rz
    limits (-20.0 45.0)
           (-30.0 30.0)
           (-30.0 30.0)
  end
  begin
     id 17 
     name lclavicle
     direction 0.911936 0.410197 -0.0105506  
     length 3.52622  
     axis 0 0 0   XYZ
    dof ry rz
    limits (-20.0 10.0)
           (0.0 20.0)
  end
  begin
     id 18 
     name lhumerus
     direction 1 -4.48974e-011 -2.48591e-028   
     length 5.47651   
     axis 180 -30 -90   XYZ
    dof rx ry rz
    limits (-60.0 90.0)
           (-90.0 90.0)
           (-90.0 90.0)
  end
  begin
     id 19
     name lradius
     direction 1 -4.48938e-011 -4.40099e-027   
     length 3.09058   
     axis 180 -30 -90   XYZ
    dof rx
    limits (-10.0 170.0)
  end
  begin
     id 20
     name lwrist
     direction 1 -4.49042e-011 -2.99852e-027   
     length 1.54529   
     axis 1.95339e-015 90 90   XYZ
    dof ry
    limits (-180.0 0.0)
 end
  begin
     id 21 
     name lhand
     direction 1 -4.48815e-011 -5.98193e-027   
     length 0.771611   
     axis 3.82337e-015 90 90   XYZ
    dof rx rz
    limits (-90.0 90.0)
           (-45.0 45.0)
  end
  begin
     id 22 
     name lfingers
     direction 1 -4.49034e-011 -1.1993e-026   
     length 0.622093   
     axis 7.64668e-015 90 90   XYZ
    dof rx
    limits (0.0 90.0)
  end
  begin
     id 23
     name lthumb
     direction 0.707107 -6.34867e-011 0.707107   
     length 0.893204   
     axis -90 45 -1.62303e-014   XYZ
    dof rx rz
    limits (-45.0 45.0)
           (-45.0 45.0)
  end
  begin
     id 24 
     name rclavicle
     direction -0.93442 0.355634 -0.0195692   
     length 3.62463  
     axis 0 0 0   XYZ 
    dof ry rz
    limits (-10.0 20.0)
           (-20.0 0.0)
  end
  begin
     id 25 
     name rhumerus
     direction -1 -4.48957e-011 -1.19147e-027  
     length 5.14182   
     axis 180 30 90   XYZ
    dof rx ry rz
    limits (-90.0 60.0)
           (-90.0 90.0)
           (-90.0 90.0)
  end
  begin
     id 26 
     name rradius
     direction -1 -4.48952e-011 -3.81062e-027   
     length 3.35565   
     axis 180 30 90   XYZ
    dof rx
    limits (-10.0 170.0)
  end
  begin
     id 27 
     name rwrist
     direction -1 -4.48973e-011 -2.99621e-027   
     length 1.67782   
     axis 1.95339e-015 -90 -90   XYZ
    dof ry
    limits (-180.0 0.0)
  end
  begin
     id 28
     name rhand
     direction -1 -4.48895e-011 -5.98727e-027   
     length 0.801042   
     axis 3.82337e-015 -90 -90   XYZ
    dof rx rz
    limits (-90.0 90.0)
           (-45.0 45.0)
  end
  begin
     id 29
     name rfingers
     direction -1 -4.49065e-011 -1.19972e-026   
     length 0.645821   
     axis 7.64668e-015 -90 -90   XYZ
    dof rx
    limits (0.0 90.0)
  end
  begin
     id 30
     name rthumb
     direction -0.707107 -6.34957e-011 0.707107   
     length 0.927273   
     axis -90 -45 1.62303e-014   XYZ
    dof rx rz
    limits (-45.0 45.0)
           (-45.0 45.0)
  end
:hierarchy
  begin
    root lhipjoint rhipjoint lowerback
    lhipjoint lfemur
    lfemur ltibia
    ltibia lfoot
    lfoot ltoes
    rhipjoint rfemur
    rfemur rtibia
    rtibia rfoot
    rfoot rtoes
    lowerback upperback
    upperback thorax
    thorax lowerneck lclavicle rclavicle
    lowerneck upperneck
    upperneck head
    lclavicle lhumerus
    lhumerus lradius
    lradius lwrist
    lwrist lhand lthumb
    lhand lfingers
    rclavicle rhumerus
    rhumerus rradius
    rradius rwrist
    rwrist rhand rthumb
    rhand rfingers
  end

#!OML:ASF E:\Style4\Style4.ASF
:FULLY-SPECIFIED
:DEGREES
71
root -0.0678433 18.0498 -0.701377 3.1595 -2.41499 3.49086
lowerback 1.81761 1.80531 -2.55856
upperback 0.361388 2.34836 -1.19653
thorax -0.70045 1.17779 0.149609
lowerneck -0.22352 -3.67003 -7.09007
upperneck 10.0407 -5.09865 4.63841
head 3.68318 -2.62721 2.64
rclavicle -2.90132e-014 4.27387e-015
rhumerus -79.8217 55.7902 -115.537
rradius 85.8065
rwrist -9.25117
rhand 0.517085 30.0635
rfingers 7.12502
rthumb 26.0856 1.83482
lclavicle -2.90132e-014 4.27387e-015
lhumerus -82.2426 -58.8697 113.576
lradius 94.2142
lwrist -3.26127
lhand -5.01663 4.18498
lfingers 7.12502
lthumb 20.7774 33.0926
rfemur -6.10962 4.66834 14.6736
rtibia 22.0602
rfoot -17.8013 -16.4729
rtoes -12.0333
lfemur 0.0445308 -3.99576 -23.4291
ltibia 12.697
lfoot -16.0902 12.8425
ltoes -14.0559
72
root -0.0678723 18.0493 -0.701319 3.18236 -2.40856 3.51895
lowerback 1.77893 1.79587 -2.58321
upperback 0.364951 2.33678 -1.20454
thorax -0.675535 1.17179 0.156884
lowerneck -0.231444 -3.67318 -7.09455
upperneck 10.0407 -5.10149 4.63062
head 3.68475 -2.62896 2.63791
rclavicle 1.96673e-014 1.63997e-015
rhumerus -79.8123 55.8302 -115.553
rradius 85.804
rwrist -9.27211
rhand 0.376338 30.1148
rfingers 7.12502
rthumb 25.9508 1.86634
lclavicle 1.96673e-014 1.63997e-015
lhumerus -82.2033 -58.8658 113.556
lradius 94.2078
lwrist -3.25089
lhand -5.01571 4.1882
lfingers 7.12502
lthumb 20.7783 33.0957
rfemur -6.13601 4.6855 14.6429
rtibia 22.0585
rfoot -17.7777 -16.4843
rtoes -12.1655
lfemur 0.0199079 -3.99456 -23.4571
ltibia 12.6984
lfoot -16.1746 12.8355
ltoes -13.7948
73
root -0.0687524 18.0496 -0.701196 3.18251 -2.40566 3.49335
lowerback 1.78502 1.79573 -2.55937
upperback 0.363053 2.3368 -1.20144
thorax -0.68007 1.17182 0.146523
lowerneck -0.196995 -3.67593 -7.11692
upperneck 10.0015 -5.10934 4.66979
head 3.66744 -2.6325 2.65571
rclavicle -1.49151e-014 1.16786e-014
rhumerus -79.7649 55.8276 -115.523
rradius 85.7967
rwrist -9.2805
rhand 0.452266 30.1402
rfingers 7.12502
rthumb 26.0235 1.90238
lclavicle -1.49151e-014 1.16786e-014
lhumerus -82.2506 -58.8844 113.593
lradius 94.209
lwrist -3.26251
lhand -5.10191 4.18867
lfingers 7.12502
lthumb 20.6955 33.1052
rfemur -6.13835 4.66064 14.6736
rtibia 22.069
rfoot -17.778 -16.4557
rtoes -12.0884
lfemur 0.0287005 -3.99399 -23.4245
ltibia 12.6824
lfoot -16.1494 12.8383
ltoes -14.0102
74
root -0.0688273 18.0498 -0.701633 3.18265 -2.40982 3.5209
lowerback 1.80327 1.79748 -2.58109
upperback 0.351207 2.33765 -1.21539
thorax -0.702733 1.17255 0.143451
lowerneck -0.198754 -3.68091 -7.12323
upperneck 10.0176 -5.1161 4.66954
head 3.67419 -2.6362 2.65656
rclavicle 3.53247e-014 -1.39149e-015
rhumerus -79.7377 55.7977 -115.492
rradius 85.8016
rwrist -9.22522
rhand 0.610997 30.1031
rfingers 7.12502
rthumb 26.1755 1.88778
lclavicle 3.53247e-014 -1.39149e-015
lhumerus -82.3191 -58.8787 113.604
lradius 94.2575
lwrist -3.26494
lhand -5.12605 4.21413
lfingers 7.12502
lthumb 20.6723 33.1332
rfemur -6.15499 4.65838 14.6415
rtibia 22.086
rfoot -17.7289 -16.4805
rtoes -12.192
lfemur 0.0321816 -4.03113 -23.4558
ltibia 12.6677
lfoot -16.1266 12.7704
ltoes -13.329
75
root -0.0693878 18.0496 -0.701314 3.21513 -2.35813 3.52094
lowerback 1.77516 1.77365 -2.58869
upperback 0.343971 2.30666 -1.2077
thorax -0.694349 1.15707 0.157182
lowerneck -0.207928 -3.67503 -7.14203
upperneck 10.0205 -5.10762 4.67598
head 3.67744 -2.63241 2.66254
rclavicle 5.31438e-015 -1.70458e-014
rhumerus -79.7589 55.8123 -115.499
rradius 85.8219
rwrist -9.19453
rhand 0.529716 30.0141
rfingers 7.12502
rthumb 26.0977 1.78726
lclavicle 5.31438e-015 -1.70458e-014
lhumerus -82.3444 -58.8593 113.552
lradius 94.3357
lwrist -3.24394
lhand -5.04794 4.18603
lfingers 7.12502
lthumb 20.7474 33.0969
rfemur -6.18245 4.61612 14.6411
rtibia 22.0899
rfoot -17.7753 -16.4612
rtoes -12.0229
lfemur -0.00561535 -4.03499 -23.4467
ltibia 12.6649
lfoot -16.1127 12.7617
ltoes -13.429
76
root -0.0693736 18.0491 -0.699765 3.2354 -2.29967 3.52499
lowerback 1.74065 1.74223 -2.60601
upperback 0.336713 2.26568 -1.19487
thorax -0.682743 1.13658 0.182036
lowerneck -0.200611 -3.66256 -7.14562
upperneck 10.0292 -5.08938 4.65368
head 3.67705 -2.62443 2.6563
rclavicle -2.05711e-014 -7.40473e-015
rhumerus -79.8622 55.8231 -115.567
rradius 85.8493
rwrist -9.16855
rhand 0.381276 29.9861
rfingers 7.12502
rthumb 25.9555 1.73829
lclavicle -2.05711e-014 -7.40473e-015
lhumerus -82.335 -58.8018 113.547
lradius 94.3246
lwrist -3.20808
lhand -5.01992 4.20925
lfingers 7.12502
lthumb 20.7743 33.1172
rfemur -6.18194 4.60176 14.6413
rtibia 22.1013
rfoot -17.8985 -16.4221
rtoes -11.7621
lfemur -0.00759424 -4.05417 -23.4451
ltibia 12.6341
lfoot -16.0453 12.8157
ltoes -14.0282
77
root -0.0695837 18.049 -0.699052 3.22491 -2.2989 3.52703
lowerback 1.74247 1.74824 -2.60735
upperback 0.341712 2.27368 -1.20025
thorax -0.678651 1.1405 0.17712
lowerneck -0.193908 -3.66873 -7.15271
upperneck 10.0127 -5.09917 4.67208
head 3.67168 -2.62888 2.66366
rclavicle -1.62569e-014 2.38542e-015
rhumerus -79.8631 55.7996 -115.546
rradius 85.8617
rwrist -9.17136
rhand 0.370141 29.939
rfingers 7.12502
rthumb 25.9449 1.6897
lclavicle -1.62569e-014 2.38542e-015
lhumerus -82.2854 -58.797 113.553
lradius 94.2592
lwrist -3.2337
lhand -4.98257 4.22499
lfingers 7.12502
lthumb 20.8102 33.129
rfemur -6.16127 4.61082 14.643
rtibia 22.0973
rfoot -17.9027 -16.4447
rtoes -11.6815
lfemur 0.00662261 -4.06749 -23.4442
ltibia 12.6285
lfoot -15.9987 12.7928
ltoes -14.0942
78
root -0.0715087 18.049 -0.699574 3.20935 -2.33386 3.52655
lowerback 1.76359 1.76003 -2.63031
upperback 0.342756 2.28819 -1.19847
thorax -0.690707 1.14789 0.190659
lowerneck -0.210863 -3.67023 -7.14968
upperneck 10.0382 -5.09993 4.66263
head 3.68345 -2.62945 2.65965
rclavicle 2.08631e-014 -8.44835e-016
rhumerus -79.8991 55.8065 -115.577
rradius 85.8749
rwrist -9.18016
rhand 0.424164 29.9107
rfingers 7.12502
rthumb 25.9966 1.66896
lclavicle 2.08631e-014 -8.44835e-016
lhumerus -82.3038 -58.7894 113.594
lradius 94.2537
lwrist -3.21767
lhand -4.95371 4.33956
lfingers 7.12502
lthumb 20.8379 33.2405
rfemur -6.14735 4.62577 14.6507
rtibia 22.0742
rfoot -17.8145 -16.489
rtoes -12.029
lfemur 0.0251759 -4.07016 -23.4411
ltibia 12.636
lfoot -16.0704 12.7809
ltoes -13.9932
79
root -0.0715818 18.0489 -0.699852 3.19436 -2.3398 3.49734
lowerback 1.797 1.76073 -2.5948
upperback 0.343165 2.28864 -1.18841
thorax -0.708031 1.14821 0.180017
lowerneck -0.251819 -3.66382 -7.16333
upperneck 10.0645 -5.08839 4.65846
head 3.70021 -2.62412 2.66077
rclavicle 3.13086e-015 6.01324e-015
rhumerus -79.9425 55.7992 -115.584
rradius 85.907
rwrist -9.18787
rhand 0.557115 29.9211
rfingers 7.12502
rthumb 26.1239 1.69808
lclavicle 3.13086e-015 6.01324e-015
lhumerus -82.2903 -58.7831 113.588
lradius 94.2659
lwrist -3.17823
lhand -4.94196 4.36532
lfingers 7.12502
lthumb 20.8492 33.265
rfemur -6.10456 4.62979 14.6844
rtibia 22.032
rfoot -17.7981 -16.4965
rtoes -12.013
lfemur 0.032817 -4.03858 -23.4075
ltibia 12.6554
lfoot -16.0807 12.7688
ltoes -14.0194
80
root -0.0706749 18.0502 -0.698667 3.21017 -2.2899 3.49775
lowerback 1.77695 1.73252 -2.59638
upperback 0.342135 2.2518 -1.17756
thorax -0.697528 1.12973 0.193619
lowerneck -0.259224 -3.63932 -7.16776
upperneck 10.0338 -5.0536 4.65354
head 3.68827 -2.60692 2.66109
rclavicle -2.29845e-015 7.20594e-015
rhumerus -80.0184 55.8347 -115.629
rradius 85.9384
rwrist -9.20396
rhand 0.544392 29.9239
rfingers 7.12502
rthumb 26.1117 1.6991
lclavicle -2.29845e-015 7.20594e-015
lhumerus -82.175 -58.7169 113.495
lradius 94.2548
lwrist -3.17696
lhand -4.85559 4.33283
lfingers 7.12502
lthumb 20.9322 33.2234
rfemur -6.08727 4.64378 14.6883
rtibia 21.9971
rfoot -17.8039 -16.5577
rtoes -12.0601
lfemur 0.0139886 -4.06772 -23.4101
ltibia 12.6608
lfoot -16.0372 12.708
ltoes -13.4604
81
root -0.0710309 18.0502 -0.696968 3.19537 -2.24406 3.4723
lowerback 1.7724 1.71982 -2.57782
upperback 0.350285 2.23567 -1.16927
thorax -0.685882 1.12148 0.192489
lowerneck -0.219491 -3.63435 -7.11201
upperneck 9.98297 -5.04651 4.61323
head 3.65824 -2.60274 2.63728
rclavicle 1.51356e-014 9.34288e-015
rhumerus -79.9701 55.8057 -115.588
rradius 85.915
rwrist -9.15774
rhand 0.541385 29.939
rfingers 7.12502
rthumb 26.1088 1.7138
lclavicle 1.51356e-014 9.34288e-015
lhumerus -82.1414 -58.7098 113.458
lradius 94.2572
lwrist -3.1879
lhand -4.77498 4.28201
lfingers 7.12502
lthumb 21.0096 33.164
rfemur -6.04117 4.63759 14.7263
rtibia 21.9691
rfoot -17.7868 -16.6001
rtoes -12.0961
lfemur 0.0311601 -4.09896 -23.3789
ltibia 12.6666
lfoot -16.032 12.6753
ltoes -13.2857
